# xmcd
#
# Track frame offsets:
#       150
#       18755
#       39176
#       56235
#       76245
#       98459
#       114897
#       131897
#       153527
#       172853
#       197623
#
# Disc length: 2965 seconds
#
# Revision: 1
# Processed by: cddbd v1.4PL0 Copyright (c) Steve Scherf et al.
# Submitted via: MusiCat 1.1
#
DISCID=790b930b
DTITLE=U2 - All that you can't leave behind
DYEAR=1900
DGENRE=
TTITLE0=Beautiful day
TTITLE1=Stuck in a moment you can't get out of
TTITLE2=Elevation
TTITLE3=Walk on
TTITLE4=Kite
TTITLE5=In a little while
TTITLE6=Wild honey
TTITLE7=Peace on earth
TTITLE8=When I look at the world
TTITLE9=New York
TTITLE10=Grace
EXTD=0\n\n\n
EXTT0=
EXTT1=
EXTT2=
EXTT3=
EXTT4=
EXTT5=
EXTT6=
EXTT7=
EXTT8=
EXTT9=
EXTT10=
PLAYORDER=
